<svg width="84.7" height="90.3" viewBox="0 0 84.7 90.3" xmlns="http://www.w3.org/2000/svg"><g id="svgGroup" stroke-linecap="round" fill-rule="evenodd" font-size="9pt" stroke="#000" stroke-width="0.25mm" fill="#000" style="stroke:#000;stroke-width:0.25mm;fill:#000"><path d="M 84.7 54.7 L 44 54.7 L 44 49.2 C 51.933 45.093 61.522 38.548 68.05 32.002 A 54.634 54.634 0 0 0 69.4 30.6 L 67.3 29.1 L 66.6 29.3 L 15.4 29.3 L 15.4 32.2 L 63.7 32.2 C 58.5 37.2 50.9 42.5 44 46.3 L 44 46.1 L 41 46.1 L 41 54.7 L 0 54.7 L 0 57.6 L 41 57.6 L 41 85.6 A 3.665 3.665 0 0 1 40.941 86.308 C 40.768 87.177 40.194 87.519 38.9 87.6 A 24.74 24.74 0 0 1 38.125 87.633 C 36.214 87.69 32.25 87.689 27.016 87.631 A 1037.867 1037.867 0 0 1 24.5 87.6 A 114.426 114.426 0 0 1 24.789 88.123 C 25.16 88.799 25.543 89.519 25.797 90.069 A 9.379 9.379 0 0 1 25.9 90.3 A 2985.755 2985.755 0 0 0 28.923 90.299 C 34.734 90.293 38.108 90.25 40.145 89.941 A 10.592 10.592 0 0 0 40.9 89.8 C 43.2 89.2 44 88.1 44 85.5 L 44 57.6 L 84.7 57.6 L 84.7 54.7 Z M 4.5 15.4 L 80 15.4 L 80 33.5 L 83 33.5 L 83 12.4 L 43.6 12.4 L 43.6 0 L 40.6 0 L 40.6 12.4 L 1.5 12.4 L 1.5 33.5 L 4.5 33.5 L 4.5 15.4 Z" vector-effect="non-scaling-stroke"/></g></svg>